<svg xmlns="http://www.w3.org/2000/svg" xmlns:xlink="http://www.w3.org/1999/xlink" version="1.1" x="0px" y="0px" viewBox="0 0 100 125" enable-background="new 0 0 100 100" xml:space="preserve"><g><polygon points="20,22 22,20 50,48 78,20 80,22 52,50 80,78 78,80 50,52 22,80 20,78 48,50  "/><g><path d="M25.3,27.3c0.7-0.7,1.3-1.3,2-2c-3.5,0-7.1,0-10.6,0c9.3,9.3,18.7,18.7,28,28c2.9,2.9,7.7,2.9,10.6,0    c9.3-9.3,18.7-18.7,28-28c-3.5,0-7.1,0-10.6,0c0.7,0.7,1.3,1.3,2,2c0-3.5,0-7.1,0-10.6c-9.3,9.3-18.7,18.7-28,28    c-2.9,2.9-2.9,7.7,0,10.6c9.3,9.3,18.7,18.7,28,28c0-3.5,0-7.1,0-10.6c-0.7,0.7-1.3,1.3-2,2c3.5,0,7.1,0,10.6,0    c-9.3-9.3-18.7-18.7-28-28c-2.9-2.9-7.7-2.9-10.6,0c-9.3,9.3-18.7,18.7-28,28c3.5,0,7.1,0,10.6,0c-0.7-0.7-1.3-1.3-2-2    c0,3.5,0,7.1,0,10.6c9.3-9.3,18.7-18.7,28-28c2.9-2.9,2.9-7.7,0-10.6c-9.3-9.3-18.7-18.7-28-28c-6.8-6.8-17.5,3.8-10.6,10.6    c9.3,9.3,18.7,18.7,28,28c0-3.5,0-7.1,0-10.6c-9.3,9.3-18.7,18.7-28,28c-2.9,2.9-2.9,7.7,0,10.6c0.7,0.7,1.3,1.3,2,2    c2.9,2.9,7.7,2.9,10.6,0c9.3-9.3,18.7-18.7,28-28c-3.5,0-7.1,0-10.6,0c9.3,9.3,18.7,18.7,28,28c2.9,2.9,7.7,2.9,10.6,0    c0.7-0.7,1.3-1.3,2-2c2.9-2.9,2.9-7.7,0-10.6c-9.3-9.3-18.7-18.7-28-28c0,3.5,0,7.1,0,10.6c9.3-9.3,18.7-18.7,28-28    c2.9-2.9,2.9-7.7,0-10.6c-0.7-0.7-1.3-1.3-2-2c-2.9-2.9-7.7-2.9-10.6,0c-9.3,9.3-18.7,18.7-28,28c3.5,0,7.1,0,10.6,0    c-9.3-9.3-18.7-18.7-28-28c-2.9-2.9-7.7-2.9-10.6,0c-0.7,0.7-1.3,1.3-2,2C7.9,23.5,18.5,34.1,25.3,27.3z"/></g></g></svg>
