<svg xmlns="http://www.w3.org/2000/svg" xmlns:xlink="http://www.w3.org/1999/xlink" version="1.1" x="0px" y="0px" viewBox="0 0 80 100" enable-background="new 0 0 80 80" xml:space="preserve"><path d="M48.5050049,28.8049927c-2.3499756,0-4.5999756,0.7300415-6.4899902,2.0200195  c0.1799927-0.4500122,0.3699951-0.8699951,0.5700073-1.2700195c0.2200317-0.1599731,0.3699951-0.4099731,0.4000244-0.6900024  c2.1399536-3.5499878,5.5899658-4.9599609,10.5700073-4.3899536c0.5499878,0.0799561,1.0499878-0.3200073,1.1099854-0.8700562  c0.0599976-0.5499878-0.3300171-1.0499878-0.8800049-1.1099854c-4.8099976-0.5700073-8.5100098,0.6000366-11.0900269,3.4500122  C41.3950195,20.0449829,36.1350098,15.625,29.8650513,15.625c-0.5599976,0-1,0.4500122-1,1  c0,6.6799927,5.0099487,12.2000122,11.4799805,13.0200195c-0.3300171,0.75-0.6099854,1.5599976-0.8500366,2.4299927  c-2.1199951-2.0700073-4.9799805-3.2700195-7.9899902-3.2700195c-6.3399658,0-11.5,5.1500244-11.5,11.4899902  c0,6,4.6400146,24.0800171,11.5,24.0800171c3.25,0,6.3400269-1.3900146,8.4899902-3.7700195  c2.1500244,2.3800049,5.25,3.7700195,8.5100098,3.7700195c6.8500366,0,11.4899902-18.0800171,11.4899902-24.0800171  C59.9949951,33.9550171,54.835022,28.8049927,48.5050049,28.8049927z M32.5750122,59.8649902  C32.3950195,60.1950073,32.0550537,60.375,31.7050171,60.375c-0.1699829,0-0.3300171-0.039978-0.4899902-0.1300049  c-3.039978-1.7299805-7.210022-14.2099609-7.210022-19.9599609c0-4.1300049,3.3600464-7.4800415,7.5-7.4800415  c0.5500488,0,1,0.4400024,1,1c0,0.5499878-0.4499512,1-1,1c-3.0299683,0-5.5,2.460022-5.5,5.4800415  c0,6.0099487,4.3500366,17.1699829,6.2000122,18.2199707C32.6849976,58.7750244,32.8450317,59.3850098,32.5750122,59.8649902z"/></svg>
